<svg xmlns="http://www.w3.org/2000/svg" viewBox="0 0 1200 800" width="1200" height="800" role="img" aria-label="Courier App — Mobile Apps case study">
  
  <defs>
    <linearGradient id="g-courier-app" x1="0" y1="0" x2="1" y2="1">
      <stop offset="0%" stop-color="#6d28d9"/>
      <stop offset="100%" stop-color="#8b5cf6"/>
    </linearGradient>
    <linearGradient id="bg-courier-app" x1="0" y1="0" x2="0.7" y2="1">
      <stop offset="0%" stop-color="#242424"/>
      <stop offset="100%" stop-color="#1a1a1a"/>
    </linearGradient>
    <radialGradient id="glow-courier-app" cx="0.5" cy="0.5" r="0.5">
      <stop offset="0%" stop-color="#6d28d9" stop-opacity="0.5"/>
      <stop offset="100%" stop-color="#6d28d9" stop-opacity="0"/>
    </radialGradient>
    <pattern id="grid-courier-app" width="40" height="40" patternUnits="userSpaceOnUse">
      <path d="M40 0H0V40" fill="none" stroke="#ffffff" stroke-opacity="0.045" stroke-width="1"/>
    </pattern>
  </defs>
  <rect width="1200" height="800" fill="url(#bg-courier-app)"/>
  <rect width="1200" height="800" fill="url(#grid-courier-app)"/>
  <ellipse cx="288" cy="176" rx="420" ry="320" fill="url(#glow-courier-app)"/>
  <ellipse cx="983.9999999999999" cy="672" rx="380" ry="300" fill="url(#glow-courier-app)" opacity="0.55"/>
  <circle cx="396" cy="179" r="103" fill="none" stroke="url(#g-courier-app)" stroke-width="1.5" opacity="0.167"/>
  <rect x="473" y="335" width="230" height="230" rx="20" fill="url(#g-courier-app)" opacity="0.154" transform="rotate(-2.0 473 335)"/>
  <path d="M863 556 l192 0 l-96 192 Z" fill="none" stroke="url(#g-courier-app)" stroke-width="1.5" opacity="0.078"/>
  <circle cx="767" cy="486" r="111" fill="none" stroke="url(#g-courier-app)" stroke-width="1.5" opacity="0.100"/>
  <rect x="1017" y="468" width="139" height="139" rx="20" fill="url(#g-courier-app)" opacity="0.086" transform="rotate(-6.9 1017 468)"/>
  <path d="M863 656 l191 0 l-96 191 Z" fill="none" stroke="url(#g-courier-app)" stroke-width="1.5" opacity="0.217"/>
  <circle cx="794" cy="377" r="117" fill="none" stroke="url(#g-courier-app)" stroke-width="1.5" opacity="0.189"/>

  <!-- central plate -->
  <rect x="300" y="270" width="600" height="260" rx="28" fill="#212121" fill-opacity="0.55" stroke="#ffffff" stroke-opacity="0.1"/>
  <text x="600" y="344" text-anchor="middle" font-family="Inter, system-ui, sans-serif" font-size="15" font-weight="600" letter-spacing="4" fill="#8b5cf6" opacity="0.9">MOBILE APPS</text>
  <text x="600" y="410" text-anchor="middle" font-family="Inter, system-ui, sans-serif" font-size="42" font-weight="700" fill="#f3ffff">Courier App</text>
  <rect x="560" y="452" width="80" height="4" rx="2" fill="url(#g-courier-app)"/>
  <text x="600" y="498" text-anchor="middle" font-family="Inter, system-ui, sans-serif" font-size="16" font-weight="500" letter-spacing="2" fill="#a0a6a6">PLUTOX TECH</text>
</svg>
